<?xml version="1.0" encoding="utf-8"?>
<!-- Generator: Adobe Illustrator 24.1.1, SVG Export Plug-In . SVG Version: 6.00 Build 0)  -->
<svg version="1.1" id="Layer_1" xmlns="http://www.w3.org/2000/svg" xmlns:xlink="http://www.w3.org/1999/xlink" x="0px" y="0px"
	 viewBox="0 0 512 512" style="enable-background:new 0 0 512 512;" xml:space="preserve">
<g>
	<path d="M256,0C114.6,0,0,114.6,0,256s114.6,256,256,256s256-114.6,256-256S397.4,0,256,0z M157.2,93.4c11.3,0,20.2,9.2,20.2,20.2
		c0,11-9,20.2-20.2,20.2c-11.1-0.1-20.2-9.1-20.2-20.2C137,102.4,146,93.4,157.2,93.4z M141.8,158.2h30.8v214.3h-30.8V158.2z
		 M217.8,158.2H301c79.2,0,114,56.7,114,107.3c0,55-43,107.2-113.6,107.2h-83.6L217.8,158.2z M248.6,186v158.8h49
		c69.8,0,85.8-53,85.8-79.4c0-43-27.4-79.4-87.4-79.4H248.6z"/>
</g>
</svg>
